<?xml version="1.0" encoding="iso-8859-1"?>
<!-- Generator: Adobe Illustrator 19.0.0, SVG Export Plug-In . SVG Version: 6.00 Build 0)  -->
<svg version="1.1" id="Capa_1" xmlns="http://www.w3.org/2000/svg" xmlns:xlink="http://www.w3.org/1999/xlink" x="0px" y="0px"
	 viewBox="0 0 490.4 490.4" style="enable-background:new 0 0 490.4 490.4;" xml:space="preserve">
<g>
	<g>
		<g>
			<path d="M0,374.65v-247.1c0-19.4,15.8-35.2,35.2-35.2H200v48H48.1v221.1h340.1v-93.3h48v106.4c0,19.4-15.8,35.2-35.2,35.2h-98.8
				v33.8c0,7-5.7,12.6-12.6,12.6h-143c-7,0-12.6-5.7-12.6-12.6v-33.8H35.3C15.8,409.85,0,394.05,0,374.65z M272.7,268.65v-41.6H267
				c-14.3,0-25.8-11.6-25.8-25.8V60.05c0-14.3,11.6-25.8,25.8-25.8h197.6c14.3,0,25.8,11.6,25.8,25.8v141.2
				c0,14.3-11.6,25.8-25.8,25.8H323.4l-44.2,44.2C276.7,273.65,272.7,272.05,272.7,268.65z M357.9,188.65h-19v19h19V188.65z
				 M392.6,188.65h-19v19h19V188.65z M442.8,72.45h19v-19h-19V72.45z M442.8,207.65h19v-19h-19V207.65z M408.2,72.45h19v-19h-19
				V72.45z M408.2,207.65h19v-19h-19V207.65z M373.5,72.45h19v-19h-19V72.45z M338.9,72.45h19v-19h-19V72.45z M335.6,160.15
				c0,3.6,3.9,5.8,7,4l54.5-31.5c3.1-1.8,3.1-6.2,0-8l-54.5-31.5c-3.1-1.8-7,0.4-7,4V160.15z M304.3,72.45h19v-19h-19V72.45z
				 M304.3,207.65h19v-19h-19V207.65z M269.7,72.45h19v-19h-19V72.45z M288.7,207.65v-19h-19v19H288.7z"/>
		</g>
	</g>
</g>
<g>
</g>
<g>
</g>
<g>
</g>
<g>
</g>
<g>
</g>
<g>
</g>
<g>
</g>
<g>
</g>
<g>
</g>
<g>
</g>
<g>
</g>
<g>
</g>
<g>
</g>
<g>
</g>
<g>
</g>
</svg>
